<?xml version="1.0" encoding="UTF-8"?>
<svg id="Camada_1" xmlns="http://www.w3.org/2000/svg" version="1.1" viewBox="0 0 289.176 289.877">
  <!-- Generator: Adobe Illustrator 29.5.1, SVG Export Plug-In . SVG Version: 2.1.0 Build 141)  -->
  <path d="M45.809,163.907c3.975-2.913,7.145-6.606,10.114-10.474,1.793-2.336,3.427-4.796,5.109-7.217,2.056-2.96,4.063-5.954,6.09-8.934,1.286-1.891,2.608-3.772,3.965-5.622,2.978-4.062,5.843-8.209,8.798-12.288,2.078-2.868,4.231-5.682,6.349-8.522,2.403-3.222,4.778-6.465,7.214-9.662,2.422-3.178,4.925-6.295,7.357-9.467,2.22-2.893,4.538-5.709,6.777-8.588,2.922-3.757,6.111-7.306,9.175-10.952,2.819-3.353,5.578-6.757,8.447-10.067,3.738-4.312,7.524-8.583,11.351-12.817,2.943-3.256,5.932-6.474,8.991-9.621,3.086-3.174,6.068-6.442,9.059-9.703,2.983-3.253,5.947-6.505,8.144-10.39,1.013-1.791,2.044-3.566,2.281-5.612.273-2.357.311-4.691-1.146-6.843-2.053-3.031-5.149-4.324-8.439-5.153-22.278-5.617-89.105,3.32-91.739,3.851-3.272.659-6.496,1.448-9.697,2.369-2.572.74-5.077,1.653-7.579,2.607-2.271.866-4.522,1.77-6.651,2.91-2.615,1.401-5.167,2.91-7.619,4.618-2.318,1.615-4.53,3.331-6.565,5.263-2.728,2.592-5.193,5.414-7.369,8.511-1.498,2.132-2.873,4.327-4.13,6.594-1.462,2.636-2.621,5.418-3.769,8.209-1.068,2.598-1.999,5.249-2.746,7.935-.701,2.528-1.316,5.099-1.929,7.657-.584,2.435-1.047,4.907-1.4,7.352-.414,2.874-.866,5.766-1.274,8.64-.595,4.203-.802,8.432-1.276,12.638-.494,4.38-.44,8.814-.868,13.215-.259,2.666.008,5.362-.209,8.049-.224,2.777-.081,5.57-.192,8.361-.195,4.877-.076,9.763-.247,14.646-.115,3.279-.022,6.566-.022,11.164.075,4.469-.137,10.254.367,16.038.258,2.954.655,5.857,1.581,8.654.794,2.402,1.848,4.642,3.958,6.329,2.634,2.107,5.563,2.901,8.788,2.436,3.937-.569,7.507-2.283,10.973-4.135,3.09-1.652,6.181-3.306,9.209-5.084,3.684-2.161,7.324-4.368,10.77-6.894h.002Z"/>
  <path d="M152.082,67.91c-1.291,1.414-2.578,2.834-3.827,4.284-2.291,2.662-4.5,5.397-6.843,8.012-2.322,2.592-4.545,5.266-6.804,7.911-2.258,2.645-4.501,5.302-6.697,7.998-2.393,2.937-4.647,5.991-7.103,8.874-2.486,2.917-4.779,5.981-6.996,9.09-2.459,3.447-4.772,7.018-6.429,10.945-1.173,2.779-1.946,5.62-1.386,8.717.495,2.735,2.002,4.731,4.223,6.198,2.546,1.682,5.498,2.118,8.465,2.198,5.026.135,9.924-.838,14.84-1.791,4.601-.893,9.163-1.959,13.759-2.868,4.392-.869,8.798-1.657,13.197-2.483,5.555-1.043,11.136-1.934,16.678-3.054,5.955-1.204,11.878-2.557,17.835-3.747,2.743-.548,5.474-1.279,8.143-2.201,3.132-1.083,6.139-2.381,8.783-4.41,2.188-1.679,4.22-3.518,5.986-5.655,1.884-2.28,3.501-4.74,5.152-7.187,2.916-4.323,5.544-8.823,8.243-13.277,2.303-3.801,4.551-7.638,6.719-11.524,1.789-3.208,3.66-6.372,5.357-9.632.805-1.547,1.787-2.988,2.618-4.514,1.127-2.07,2.034-4.263,3.193-6.313,1.966-3.479,3.605-7.12,5.437-10.665,1.731-3.35,3.213-6.818,4.508-10.37,1.356-3.722,2.341-7.476,2.229-11.491-.126-4.527-1.76-8.396-4.806-11.676-3.12-3.361-6.926-5.721-11.122-7.537-2.786-1.206-5.613-2.271-8.526-3.093-3.785-1.069-7.624-1.859-12.513-1.957-1.726-.205-4.289.44-6.776,1.158-4.278,1.235-8.046,3.524-11.538,6.27-4.301,3.382-8.267,7.148-12.281,10.851-3.89,3.589-7.674,7.294-11.445,11.007-3.027,2.982-6.063,5.959-8.939,9.093-2.099,2.287-4.345,4.438-6.443,6.725-1.133,1.234-2.322,2.411-3.455,3.641-3.823,4.149-7.631,8.312-11.436,12.477v-.005Z"/>
  <path d="M288.995,164.62h.02c0-1.642-.027-3.283.005-4.925.099-5.095-.074-10.159-1.702-15.054-.57-1.711-1.218-3.404-2.41-4.805-1.648-1.935-3.354-3.762-5.622-5.069-1.861-1.072-3.801-1.787-5.855-2.25-1.932-.436-3.902-.577-5.884-.725-1.968-.147-3.904-.102-5.822.163-3.021.417-6.043.84-9.055,1.343-4.537.757-8.982,1.799-13.177,3.662-5.146,2.285-9.019,6.182-12.547,10.456-1.683,2.038-3.123,4.25-4.64,6.407-1.635,2.325-3.308,4.622-4.961,6.935-2.182,3.055-4.329,6.137-6.548,9.165-2.422,3.306-4.909,6.565-7.368,9.845-1.539,2.052-3.146,4.057-4.589,6.177-.79,1.161-1.835,2.09-2.611,3.243-2.234,3.324-4.936,6.281-7.398,9.427-2.571,3.284-5.221,6.505-7.775,9.802-1.659,2.142-3.298,4.31-4.781,6.575-2.281,3.485-4.322,7.056-4.936,11.336-.673,4.7,1.925,9.007,5.751,11.215,3.166,1.827,6.654,2.48,10.204,2.658,4.071.204,8.16.14,12.233-.178,3.427-.267,6.853-.548,10.28-.823,1.87-.151,3.757-.194,5.606-.481,3.405-.527,6.852-.526,10.261-.971,2.029-.265,4.07-.493,6.113-.577,2.229-.093,4.4-.7,6.629-.679,2.38.023,4.684-.575,7.036-.763,2.355-.188,4.654-.757,7.013-.962,2.032-.177,4.094-.443,6.047-1.004,2.835-.816,5.747-1.275,8.562-2.223,3.243-1.093,6.364-2.301,9.243-4.191,5.147-3.381,7.881-8.308,9.312-14.102.498-2.016.848-4.062,1.148-6.126.566-3.888.713-7.809,1.193-11.7.24-1.946.067-3.906.233-5.845.413-4.819.509-9.654.755-14.478.178-3.484.035-6.984.035-10.476v-.002Z"/>
  <path d="M260.855,245.514c-4.273-1.901-8.833-1.828-13.357-1.65-3.639.144-7.263.607-10.891.946-3.041.284-6.072.689-9.11.988-3.418.337-6.838.671-10.262.938-2.77.216-5.527.539-8.305.713-4.509.285-9.003.805-13.532.777-.279-.002-.56-.003-.837.025-3.491.349-6.984.696-10.492.782-2.021.049-4.021.295-6.027.478-3.766.345-7.513.89-11.282,1.19-4.362.348-8.703.821-13.029,1.486-4.714.724-9.137,2.2-13.197,4.741-4.888,3.058-8.858,7.074-12.098,11.786-2.089,3.038-3.956,6.216-3.783,10.173.11,2.516,1.318,4.426,2.988,6.067,1.885,1.851,4.361,2.661,6.861,3.319,4.337,1.142,8.801,1.197,13.236,1.41,2.753.133,5.517.025,8.965.025,2.726-.132,6.139.038,9.56-.145,3.86-.206,7.737-.192,11.606-.235,4.53-.051,9.039-.342,13.554-.632,4.577-.295,9.155-.507,13.715-1.049,4.098-.488,8.208-.863,12.294-1.475,3.603-.539,7.195-1.166,10.727-2.002,2.821-.667,5.689-1.231,8.426-2.268.866-.329,1.75-.704,2.63-.917,1.87-.453,3.623-1.223,5.355-1.957,3.592-1.524,7.083-3.269,10.319-5.517,2.864-1.99,5.65-4.017,7.905-6.721,2.153-2.582,4.117-5.241,4.89-8.603.355-1.544.553-3.111.252-4.657-.783-4.033-3.517-6.429-7.081-8.015h.001Z"/>
  <path d="M89.469,251.411c-2.161-1.843-4.591-3.104-7.219-4.021-2.786-.972-5.694-1.509-8.577-2.089-2.921-.588-5.854-1.134-8.808-1.575-4.501-.671-8.956-1.684-13.556-1.371-2.568.065-5.133-.113-7.702.411-3.707.755-7.071,2.209-9.749,4.838-3.67,3.6-5.62,7.994-5.18,13.267.355,4.251,2.048,7.843,5.004,10.936,2.297,2.404,5.038,4.141,7.91,5.675,2.748,1.467,5.616,2.663,8.647,3.522,2.033.576,4.043,1.226,6.11,1.708,3.973.926,7.961,1.11,12.018.75,3.793-.336,7.179-1.796,10.411-3.602,2.013-1.125,3.812-2.623,5.572-4.157,3.689-3.215,6.65-6.929,8.428-11.511.802-2.069,1.302-4.251.618-6.428-.759-2.419-1.895-4.619-3.925-6.35v-.002Z"/>
  <path d="M255.428,109.211c.104,3.086,1.352,5.602,3.338,7.76,1.357,1.475,3.094,2.478,5.041,3.191,3.158,1.157,6.378,1.178,9.525.472,2.433-.547,4.775-1.565,6.832-3.164,2.876-2.237,5.047-4.942,6.272-8.376,1.098-3.076,1.37-6.29,1.533-9.516.093-1.617-.339-3.188-.398-4.775-.13-3.482-1.01-6.773-2.148-10.023-.752-2.146-2.001-3.95-3.649-5.515-2.15-2.044-4.66-2.263-7.37-1.58-1.987.501-3.517,1.782-5,3.09-1.914,1.689-3.422,3.744-4.892,5.813-2.293,3.227-4.322,6.613-5.991,10.214-1.826,3.944-3.244,7.943-3.094,12.409h0Z"/>
  <path d="M132.758,228.096c1.952-1.664,3.499-3.69,5.325-5.459,1.171-1.134,2.179-2.436,3.252-3.671,2.167-2.493,4.271-5.045,6.512-7.469,1.562-1.69,2.933-3.53,4.45-5.252,1.882-2.139,3.648-4.381,5.463-6.578,2.169-2.626,4.352-5.239,6.5-7.881,2.098-2.581,4.075-5.264,6.264-7.763,1.721-1.965,3.278-4.055,4.83-6.137,1.773-2.38,3.596-4.73,5.236-7.223,1.554-2.359,3.191-4.659,4.515-7.158,1.367-2.581,2.373-5.25,2.724-8.216.561-4.748-1.336-8.725-5.33-11.11-3.594-2.146-7.637-2.42-11.612-2.314-3.796.102-7.593.727-11.346,1.42-4.358.805-8.697,1.706-13.044,2.574-2.383.476-4.752,1.028-7.128,1.517-3.328.683-6.669,1.313-9.975,2.098-2.806.666-5.613,1.318-8.387,2.121-3.093.896-6.217,1.687-9.268,2.729-2.329.795-4.656,1.601-7.008,2.323-1.988.61-3.908,1.414-5.933,1.929-1.67.426-3.29,1.065-4.904,1.687-1.487.572-3.011,1.047-4.484,1.642-1.816.733-3.637,1.477-5.381,2.39-1.322.691-2.615,1.423-3.889,2.199-1.499.912-2.737,2.136-4.092,3.22-2.587,2.068-4.571,4.681-6.618,7.222-1.472,1.826-2.737,3.826-4.012,5.8-1.878,2.907-3.744,5.827-5.501,8.808-1.258,2.134-2.791,4.107-3.808,6.378-.559,1.247-1.488,2.258-2.083,3.472-.664,1.355-1.31,2.719-1.944,4.087-.46.992-1.037,1.917-1.431,2.952-.409,1.073-.623,2.208-1.086,3.247-.715,1.607-.844,3.342-1.092,5.022-.244,1.655-.002,3.346.366,5.039.274,1.258.661,2.483,1.157,3.606.484,1.094,1.315,2.086,2.099,3.066,2.087,2.608,4.842,4.251,7.764,5.649,2.643,1.264,5.529,1.805,8.375,2.378,4.181.841,8.405,1.442,12.649,1.911,4.498.499,8.997.892,13.528.818,1.467-.024,2.934-.004,4.401-.005,2.166,0,4.332-.026,6.497.005,4.126.059,8.187-.425,12.165-1.506,3.658-.994,6.997-2.629,10.029-4.953,1.863-1.428,3.483-3.103,5.254-4.613h-.002Z"/>
</svg>