<?xml version="1.0" encoding="UTF-8"?>
<svg id="Camada_1" xmlns="http://www.w3.org/2000/svg" version="1.1" viewBox="0 0 1110.857 307.432">
  <!-- Generator: Adobe Illustrator 29.5.0, SVG Export Plug-In . SVG Version: 2.1.0 Build 137)  -->
  <path d="M379.118,45.08h130.751v29.183h-97.849v55.504h85.526v28.325h-85.526v58.079h101.282v29.183h-134.184V45.08Z"/>
  <path d="M565.943,45.51c3.621,3.532,5.436,7.966,5.436,13.303s-1.815,9.777-5.436,13.305c-3.625,3.532-8.109,5.293-13.448,5.293s-9.826-1.761-13.447-5.293c-3.625-3.527-5.436-7.962-5.436-13.305s1.81-9.772,5.436-13.303c3.621-3.527,8.106-5.293,13.447-5.293s9.822,1.765,13.448,5.293ZM537.046,98.869h30.9v146.487h-30.9V98.869Z"/>
  <path d="M584.536,280.241c5.337,0,9.249-1.288,11.73-3.863,2.477-2.575,3.72-6.63,3.72-12.16V98.869h30.9v167.638c0,27.274-13.354,40.913-40.056,40.913h-22.888v-27.179h16.594ZM628.74,45.51c3.527,3.532,5.293,7.966,5.293,13.303s-1.765,9.777-5.293,13.305-7.967,5.293-13.305,5.293c-5.534,0-10.062-1.761-13.59-5.293-3.532-3.527-5.294-7.962-5.294-13.305s1.811-9.772,5.437-13.303c3.621-3.527,8.104-5.293,13.447-5.293s9.773,1.765,13.305,5.293Z"/>
  <path d="M664.501,132.772c6.008-11.347,14.4-20.121,25.177-26.322,10.774-6.196,23.126-9.299,37.051-9.299,14.112,0,26.558,2.861,37.337,8.583,10.772,5.722,19.262,13.832,25.462,24.319,6.196,10.493,9.393,22.795,9.585,36.908,0,3.818-.286,7.725-.858,11.731h-110.437v1.716c.76,12.782,4.765,22.889,12.017,30.328,7.246,7.439,16.88,11.159,28.896,11.159,9.536,0,17.547-2.24,24.034-6.724,6.482-4.479,10.774-10.823,12.874-19.025h30.899c-2.672,14.877-9.871,27.086-21.6,36.621-11.73,9.541-26.37,14.306-43.918,14.306-15.262,0-28.566-3.098-39.911-9.299-11.35-6.196-20.126-14.922-26.322-26.179-6.201-11.252-9.299-24.319-9.299-39.197,0-15.065,3.005-28.275,9.012-39.625ZM767.643,156.09c-1.336-10.68-5.579-19.026-12.732-25.034-7.152-6.008-16.165-9.012-27.036-9.012-10.112,0-18.838,3.103-26.179,9.299-7.345,6.201-11.588,14.448-12.732,24.748h78.68Z"/>
  <path d="M943.741,113.174c10.966,10.684,16.45,27.851,16.45,51.499v80.683h-31.185v-78.966c0-13.921-2.958-24.507-8.868-31.757-5.914-7.247-14.593-10.872-26.037-10.872-12.207,0-21.792,4.247-28.754,12.732-6.964,8.489-10.443,20.17-10.443,35.047v73.816h-30.899V98.869h30.327v19.169c11.06-13.922,26.704-20.886,46.923-20.886,17.353,0,31.516,5.342,42.487,16.022Z"/>
  <path d="M997.669,126.049h-25.465v-27.18h25.465v-40.913h31.185v40.913h35.191v27.18h-35.191v76.39c0,5.722,1.145,9.776,3.434,12.16,2.287,2.386,6.196,3.576,11.73,3.576h23.462v27.18h-29.757c-13.924,0-24.081-3.241-30.469-9.728-6.395-6.482-9.585-16.496-9.585-30.041v-79.538Z"/>
  <path d="M1081.568,224.08c1.384-2.355,3.266-4.212,5.645-5.572,2.378-1.359,5.001-2.039,7.866-2.039,2.913,0,5.572.68,7.975,2.039,2.404,1.36,4.298,3.205,5.682,5.536,1.384,2.331,2.076,4.929,2.076,7.794,0,2.817-.692,5.39-2.076,7.721-1.384,2.331-3.278,4.164-5.682,5.5-2.403,1.336-5.062,2.003-7.975,2.003-2.866,0-5.488-.667-7.866-2.003-2.38-1.335-4.261-3.156-5.645-5.463-1.384-2.306-2.076-4.868-2.076-7.685,0-2.865.692-5.475,2.076-7.83ZM1105.532,225.647c-1.045-1.845-2.477-3.29-4.297-4.334-1.821-1.043-3.873-1.566-6.155-1.566-2.234,0-4.261.523-6.082,1.566-1.821,1.045-3.254,2.502-4.297,4.37-1.045,1.87-1.567,3.946-1.567,6.228,0,2.234.521,4.261,1.567,6.082,1.043,1.821,2.476,3.254,4.297,4.297,1.821,1.045,3.848,1.566,6.082,1.566,2.282,0,4.334-.521,6.155-1.566,1.821-1.043,3.253-2.488,4.297-4.334,1.043-1.845,1.566-3.884,1.566-6.119,0-2.282-.523-4.345-1.566-6.191ZM1095.736,223.534c1.99,0,3.569.486,4.735,1.457,1.165.972,1.748,2.283,1.748,3.933,0,1.117-.304,2.101-.91,2.95-.608.85-1.47,1.469-2.586,1.857l3.642,6.409h-4.006l-3.205-5.681h-2.331v5.681h-3.642v-16.607h6.556ZM1092.822,231.474h2.695c.874,0,1.577-.23,2.112-.692.534-.461.801-1.08.801-1.857s-.255-1.371-.765-1.784c-.51-.412-1.227-.62-2.149-.62h-2.695v4.953Z"/>
  <g>
    <path d="M45.765,163.937c3.978-2.916,7.151-6.612,10.123-10.483,1.795-2.338,3.43-4.8,5.113-7.223,2.058-2.963,4.067-5.959,6.095-8.942,1.287-1.893,2.61-3.775,3.968-5.627,2.981-4.066,5.848-8.216,8.806-12.299,2.08-2.871,4.235-5.687,6.355-8.529,2.405-3.225,4.782-6.471,7.22-9.671,2.424-3.181,4.929-6.301,7.363-9.475,2.222-2.896,4.542-5.714,6.783-8.596,2.925-3.76,6.116-7.312,9.183-10.962,2.821-3.356,5.583-6.763,8.454-10.076,3.741-4.316,7.531-8.591,11.361-12.828,2.946-3.259,5.937-6.48,8.999-9.629,3.089-3.177,6.073-6.448,9.067-9.712,2.986-3.256,5.952-6.511,8.151-10.399,1.014-1.793,2.046-3.569,2.283-5.617.273-2.359.311-4.695-1.147-6.849-2.055-3.034-5.154-4.328-8.446-5.158-22.298-5.622-89.183,3.323-91.82,3.854-3.275.66-6.502,1.449-9.706,2.371-2.574.741-5.081,1.654-7.586,2.609-2.273.867-4.526,1.772-6.657,2.913-2.617,1.402-5.172,2.913-7.626,4.622-2.32,1.616-4.534,3.334-6.571,5.268-2.73,2.594-5.198,5.419-7.375,8.518-1.499,2.134-2.876,4.331-4.134,6.6-1.463,2.638-2.623,5.423-3.772,8.216-1.069,2.6-2.001,5.254-2.748,7.942-.702,2.53-1.317,5.103-1.931,7.664-.585,2.437-1.048,4.911-1.401,7.358-.414,2.877-.867,5.771-1.275,8.648-.596,4.207-.803,8.439-1.277,12.649-.494,4.384-.44,8.822-.869,13.227-.259,2.668.008,5.367-.209,8.056-.224,2.779-.081,5.575-.192,8.368-.195,4.881-.076,9.772-.247,14.659-.115,3.282-.022,6.572-.022,11.174.075,4.473-.137,10.263.367,16.052.258,2.957.656,5.862,1.582,8.662.795,2.404,1.85,4.646,3.961,6.335,2.636,2.109,5.568,2.904,8.796,2.438,3.94-.569,7.514-2.285,10.983-4.139,3.093-1.653,6.186-3.309,9.217-5.088,3.687-2.163,7.33-4.372,10.779-6.9Z"/>
    <path d="M152.131,67.856c-1.292,1.415-2.58,2.836-3.83,4.288-2.293,2.664-4.504,5.402-6.849,8.019-2.324,2.594-4.549,5.271-6.81,7.918-2.26,2.647-4.505,5.307-6.703,8.005-2.395,2.94-4.651,5.996-7.109,8.882-2.488,2.92-4.783,5.986-7.002,9.098-2.461,3.45-4.776,7.024-6.435,10.955-1.174,2.781-1.948,5.625-1.387,8.725.495,2.737,2.004,4.735,4.227,6.203,2.548,1.683,5.503,2.12,8.472,2.2,5.03.135,9.933-.839,14.853-1.793,4.605-.894,9.171-1.961,13.771-2.871,4.396-.87,8.806-1.658,13.209-2.485,5.56-1.044,11.146-1.936,16.693-3.057,5.96-1.205,11.888-2.559,17.851-3.75,2.745-.548,5.479-1.28,8.15-2.203,3.135-1.084,6.144-2.383,8.791-4.414,2.19-1.68,4.224-3.521,5.991-5.66,1.886-2.282,3.504-4.744,5.157-7.193,2.919-4.327,5.549-8.831,8.25-13.289,2.305-3.804,4.555-7.645,6.725-11.534,1.791-3.211,3.663-6.378,5.362-9.64.806-1.548,1.789-2.991,2.62-4.518,1.128-2.072,2.036-4.267,3.196-6.319,1.968-3.482,3.608-7.126,5.442-10.674,1.733-3.353,3.216-6.824,4.512-10.379,1.357-3.725,2.343-7.483,2.231-11.501-.126-4.531-1.762-8.403-4.81-11.686-3.123-3.364-6.932-5.726-11.132-7.544-2.788-1.207-5.618-2.273-8.534-3.096-3.788-1.07-7.631-1.861-12.524-1.959-1.728-.205-4.293.44-6.782,1.159-4.282,1.236-8.053,3.527-11.548,6.276-4.305,3.385-8.274,7.154-12.292,10.861-3.893,3.592-7.681,7.3-11.455,11.017-3.03,2.985-6.068,5.964-8.947,9.101-2.101,2.289-4.349,4.442-6.449,6.731-1.134,1.235-2.324,2.413-3.458,3.644-3.826,4.153-7.638,8.319-11.446,12.488Z"/>
    <path d="M289.164,164.651h.02c0-1.643-.027-3.286.005-4.929.099-5.099-.074-10.168-1.703-15.067-.57-1.713-1.219-3.407-2.412-4.809-1.649-1.937-3.357-3.765-5.627-5.073-1.863-1.073-3.804-1.789-5.86-2.252-1.934-.436-3.905-.578-5.889-.726-1.97-.147-3.907-.102-5.827.163-3.024.417-6.048.841-9.063,1.344-4.541.758-8.99,1.801-13.189,3.665-5.151,2.287-9.027,6.187-12.558,10.465-1.684,2.04-3.126,4.254-4.644,6.413-1.636,2.327-3.311,4.626-4.965,6.941-2.184,3.058-4.333,6.142-6.554,9.173-2.424,3.309-4.913,6.571-7.374,9.854-1.54,2.054-3.149,4.061-4.593,6.182-.791,1.162-1.837,2.092-2.613,3.246-2.236,3.327-4.94,6.287-7.404,9.435-2.573,3.287-5.226,6.511-7.782,9.811-1.66,2.144-3.301,4.314-4.785,6.581-2.283,3.488-4.326,7.062-4.94,11.346-.674,4.704,1.927,9.015,5.756,11.225,3.169,1.829,6.66,2.482,10.213,2.66,4.075.204,8.167.14,12.244-.178,3.43-.267,6.859-.548,10.289-.824,1.872-.151,3.76-.194,5.611-.481,3.408-.527,6.858-.526,10.27-.972,2.031-.265,4.074-.493,6.118-.578,2.231-.093,4.404-.701,6.635-.68,2.382.023,4.688-.576,7.042-.764,2.357-.188,4.658-.758,7.019-.963,2.034-.177,4.098-.443,6.052-1.005,2.837-.817,5.752-1.276,8.57-2.225,3.246-1.094,6.37-2.303,9.251-4.195,5.152-3.384,7.888-8.315,9.32-14.114.498-2.018.849-4.066,1.149-6.131.566-3.891.714-7.816,1.194-11.71.24-1.948.067-3.909.233-5.85.413-4.823.509-9.662.756-14.491.178-3.487.035-6.99.035-10.485Z"/>
    <path d="M261,245.616c-4.277-1.903-8.841-1.83-13.369-1.651-3.642.144-7.269.608-10.901.947-3.044.284-6.077.69-9.118.989-3.421.337-6.844.672-10.271.939-2.772.216-5.532.539-8.312.714-4.513.285-9.011.806-13.544.778-.279-.002-.56-.003-.838.025-3.494.349-6.99.697-10.501.783-2.023.049-4.025.295-6.032.478-3.769.345-7.52.891-11.292,1.191-4.366.348-8.711.822-13.04,1.487-4.718.725-9.145,2.202-13.209,4.745-4.892,3.061-8.866,7.08-12.109,11.796-2.091,3.041-3.959,6.221-3.786,10.182.11,2.518,1.319,4.43,2.991,6.072,1.887,1.853,4.365,2.663,6.867,3.322,4.341,1.143,8.809,1.198,13.248,1.411,2.755.133,5.522.025,8.973.025,2.728-.132,6.144.038,9.568-.145,3.863-.206,7.744-.192,11.616-.235,4.534-.051,9.047-.342,13.566-.633,4.581-.295,9.163-.507,13.727-1.05,4.102-.488,8.215-.864,12.305-1.476,3.606-.539,7.201-1.167,10.736-2.004,2.823-.668,5.694-1.232,8.433-2.27.867-.329,1.752-.705,2.632-.918,1.872-.453,3.626-1.224,5.36-1.959,3.595-1.525,7.089-3.272,10.328-5.522,2.867-1.992,5.655-4.021,7.912-6.727,2.155-2.584,4.121-5.246,4.894-8.611.355-1.545.553-3.114.252-4.661-.784-4.037-3.52-6.435-7.087-8.022Z"/>
    <path d="M89.463,251.518c-2.163-1.845-4.595-3.107-7.225-4.025-2.788-.973-5.699-1.51-8.585-2.091-2.924-.589-5.859-1.135-8.816-1.576-4.505-.672-8.964-1.685-13.568-1.372-2.57.065-5.138-.113-7.709.411-3.71.756-7.077,2.211-9.758,4.842-3.673,3.603-5.625,8.001-5.185,13.279.355,4.255,2.05,7.85,5.008,10.946,2.299,2.406,5.042,4.145,7.917,5.68,2.75,1.468,5.621,2.665,8.655,3.525,2.035.577,4.047,1.227,6.115,1.709,3.976.927,7.968,1.111,12.029.751,3.796-.336,7.185-1.798,10.42-3.605,2.015-1.126,3.815-2.625,5.577-4.161,3.692-3.218,6.656-6.935,8.435-11.521.803-2.071,1.303-4.255.619-6.434-.76-2.421-1.897-4.623-3.928-6.356Z"/>
    <path d="M255.568,109.193c.104,3.089,1.353,5.607,3.341,7.767,1.358,1.476,3.097,2.48,5.045,3.194,3.161,1.158,6.384,1.179,9.533.472,2.435-.547,4.779-1.566,6.838-3.167,2.879-2.239,5.051-4.946,6.278-8.383,1.099-3.079,1.371-6.296,1.534-9.524.093-1.618-.339-3.191-.398-4.779-.13-3.485-1.011-6.779-2.15-10.032-.753-2.148-2.003-3.953-3.652-5.52-2.152-2.046-4.664-2.265-7.376-1.581-1.989.501-3.52,1.784-5.004,3.093-1.916,1.69-3.425,3.747-4.896,5.818-2.295,3.23-4.326,6.619-5.996,10.223-1.828,3.947-3.247,7.95-3.097,12.42Z"/>
    <path d="M132.79,228.183c1.954-1.665,3.502-3.693,5.33-5.464,1.172-1.135,2.181-2.438,3.255-3.674,2.169-2.495,4.275-5.049,6.518-7.476,1.563-1.691,2.936-3.533,4.454-5.257,1.884-2.141,3.651-4.385,5.468-6.584,2.171-2.628,4.356-5.244,6.506-7.888,2.1-2.583,4.079-5.269,6.27-7.77,1.723-1.967,3.281-4.059,4.834-6.142,1.775-2.382,3.599-4.734,5.241-7.229,1.555-2.361,3.194-4.663,4.519-7.164,1.368-2.583,2.375-5.255,2.726-8.223.561-4.752-1.337-8.733-5.335-11.12-3.597-2.148-7.644-2.422-11.622-2.316-3.799.102-7.6.728-11.356,1.421-4.362.806-8.705,1.708-13.055,2.576-2.385.476-4.756,1.029-7.134,1.518-3.331.684-6.675,1.314-9.984,2.1-2.808.667-5.618,1.319-8.394,2.123-3.096.897-6.222,1.688-9.276,2.731-2.331.796-4.66,1.602-7.014,2.325-1.99.611-3.911,1.415-5.938,1.931-1.671.426-3.293,1.066-4.908,1.688-1.488.573-3.014,1.048-4.488,1.643-1.818.734-3.64,1.478-5.386,2.392-1.323.692-2.617,1.424-3.892,2.201-1.5.913-2.739,2.138-4.096,3.223-2.589,2.07-4.575,4.685-6.624,7.228-1.473,1.828-2.739,3.829-4.016,5.805-1.88,2.91-3.747,5.832-5.506,8.816-1.259,2.136-2.793,4.111-3.811,6.384-.559,1.248-1.489,2.26-2.085,3.475-.665,1.356-1.311,2.721-1.946,4.091-.46.993-1.038,1.919-1.432,2.955-.409,1.074-.624,2.21-1.087,3.25-.716,1.608-.845,3.345-1.093,5.026-.244,1.656-.002,3.349.366,5.043.274,1.259.662,2.485,1.158,3.609.484,1.095,1.316,2.088,2.101,3.069,2.089,2.61,4.846,4.255,7.771,5.654,2.645,1.265,5.534,1.807,8.382,2.38,4.185.842,8.412,1.443,12.66,1.913,4.502.499,9.005.893,13.54.819,1.468-.024,2.937-.004,4.405-.005,2.168,0,4.336-.026,6.503.005,4.13.059,8.194-.425,12.176-1.507,3.661-.995,7.003-2.631,10.038-4.957,1.865-1.429,3.486-3.106,5.259-4.617Z"/>
  </g>
</svg>