<?xml version="1.0" encoding="UTF-8"?>
<svg xmlns="http://www.w3.org/2000/svg" viewBox="0 0 100 100" role="img" aria-label="Eijent">
  <!-- Three organic petals — the canonical Eijent mark, settled state -->
  <!-- Left petal -->
  <path fill="currentColor" d="M14.5 26.4 C 12.6 32.1 12.0 41.5 12.4 50.8 C 12.8 60.5 13.6 69.6 15.5 74.5 C 17.0 78.4 20.1 79.6 23.4 78.7 C 26.4 77.9 28.0 75.4 28.6 70.1 C 29.4 63.0 29.2 53.0 28.4 43.8 C 27.6 34.7 26.2 27.6 24.0 23.8 C 22.4 21.0 19.8 20.5 17.5 21.4 C 15.6 22.2 14.8 24.1 14.5 26.4 Z"/>
  <!-- Center petal — slightly larger -->
  <path fill="currentColor" d="M48.4 18.2 C 45.3 19.1 43.3 22.1 42.3 28.6 C 41.0 36.6 40.6 47.7 41.0 58.6 C 41.4 69.4 42.6 78.3 44.7 81.7 C 46.8 85.0 51.8 85.4 55.8 84.6 C 59.5 83.9 61.4 81.3 62.0 75.2 C 62.8 67.4 62.7 56.0 62.0 44.6 C 61.3 33.4 60.0 23.9 57.6 20.0 C 55.7 17.0 51.7 17.2 48.4 18.2 Z"/>
  <!-- Right petal -->
  <path fill="currentColor" d="M75.0 22.6 C 73.0 24.0 72.4 27.6 71.9 32.5 C 71.0 41.0 70.8 51.5 71.4 60.8 C 71.9 70.0 73.0 77.6 75.1 79.6 C 76.9 81.3 80.0 81.0 82.4 79.2 C 84.6 77.5 85.7 73.9 86.4 67.6 C 87.2 59.7 87.4 49.0 86.8 39.8 C 86.2 30.6 85.0 24.0 82.7 22.0 C 80.6 20.2 76.9 21.2 75.0 22.6 Z"/>
</svg>
